<?xml version="1.0" encoding="UTF-8"?>
<svg width="335" height="100" version="1.2" viewBox="0 0 251.25 75" xmlns="http://www.w3.org/2000/svg" xmlns:cc="http://creativecommons.org/ns#" xmlns:dc="http://purl.org/dc/elements/1.1/" xmlns:rdf="http://www.w3.org/1999/02/22-rdf-syntax-ns#" xmlns:xlink="http://www.w3.org/1999/xlink">
<metadata>
<rdf:RDF>
<cc:Work rdf:about="">
<dc:format>image/svg+xml</dc:format>
<dc:type rdf:resource="http://purl.org/dc/dcmitype/StillImage"/>
<dc:title/>
</cc:Work>
</rdf:RDF>
</metadata>
<defs>
<symbol id="aw" overflow="visible">
<path d="m1.1562-0.59375c-0.046875 0.35938 0.15625 0.59375 0.48438 0.59375h2.3125c0.21875 0 0.4375-0.20312 0.45312-0.39062l1.4844-9.7188h0.078125l4.5469 10.078c0.078125 0.15625 0.20312 0.28125 0.4375 0.28125h0.45312c0.23438 0 0.39062-0.125 0.4375-0.28125l4.4844-10.078h0.07813l1.5156 9.7188c0.04687 0.1875 0.25 0.39062 0.48437 0.39062h2.3438c0.32812 0 0.53125-0.23438 0.45312-0.59375l-3.0312-17.219c-0.015625-0.21875-0.17188-0.39062-0.45312-0.39062h-0.40625c-0.23438 0-0.35938 0.09375-0.4375 0.25l-5.6406 12.109h-0.07813l-5.6406-12.109c-0.078125-0.15625-0.23438-0.25-0.4375-0.25h-0.40625c-0.28125 0-0.4375 0.17188-0.46875 0.39062z"/>
</symbol>
<symbol id="as" overflow="visible">
<path d="m0.79688-3.25c0 2.1719 1.4062 3.5 3.4531 3.5 1.5938 0 2.5469-0.76562 3.1406-1.2969l0.29688 0.6875c0.14062 0.28125 0.26562 0.35938 0.4375 0.35938h0.92188c0.26562 0 0.48438-0.23438 0.48438-0.48438v-5.5625c0-2.7969-0.73438-4.4688-3.9375-4.4688-1.6406 0-3.2812 0.40625-3.4844 0.48438-0.23438 0.078125-0.4375 0.26562-0.35938 0.64062l0.21875 1.3438c0.0625 0.32812 0.23438 0.5625 0.59375 0.45312 0.59375-0.17188 1.9219-0.375 2.875-0.375s1.3594 0.45312 1.3281 1.7656c0 0-0.84375-0.28125-1.875-0.28125-2.6094 0-4.0938 1.4062-4.0938 3.2344zm2.8125 0c0-0.82812 0.67188-1.3906 1.6719-1.3906 0.75 0 1.4375 0.3125 1.4375 0.3125v1.4062c-0.15625 0.3125-0.95312 1-1.7656 1-0.79688 0-1.3438-0.5625-1.3438-1.3281z"/>
</symbol>
<symbol id="ar" overflow="visible">
<path d="m0.46875-0.76562c0 1.875 1.4844 2.5625 1.9219 2.6875v0.078125c-0.26562 0.15625-1.5469 0.89062-1.5469 2.4375 0 1.6406 1.4375 3.5156 5.2344 3.5156 3.7188 0 5.6094-2 5.6094-4.3594 0-2.2656-1.8906-3.5938-4.2188-3.5938h-3.2969c-0.5625 0-1.0156-0.32812-1.0156-0.875 0-0.60938 0.59375-0.96875 0.95312-0.96875 0.40625 0 1.0625 0.20312 2.0469 0.20312 2.6875 0 4.375-2 4.375-4.0312 0-1.8125-1.0156-2.6094-1.0156-2.6094l1.4375-0.46875c0.17188-0.046875 0.28125-0.25 0.28125-0.42188v-0.85938c0-0.28125-0.20312-0.48438-0.48438-0.48438h-4.6719c-2.5469 0-4.4688 2.0781-4.4688 4.4688 0 1.5312 0.78125 2.4062 0.78125 2.4062s-1.9219 0.875-1.9219 2.875zm3.8906-5.1562c0-1.0781 0.76562-1.8438 1.7969-1.8438 1.0469 0 1.7656 0.76562 1.7656 1.8438s-0.71875 1.8438-1.7656 1.8438c-1.0312 0-1.7969-0.76562-1.7969-1.8438zm-0.5625 9.7969c0-0.79688 0.79688-1.1562 1.0938-1.2656 0.54688-0.078125 1.1094-0.09375 1.6719-0.09375 1.5156 0 1.875 0.79688 1.875 1.25 0 0.98438-0.95312 1.625-2.3906 1.625-1.375 0-2.25-0.625-2.25-1.5156z"/>
</symbol>
<symbol id="aq" overflow="visible">
<path d="m3.0469-13.891c1 0 1.7969-0.79688 1.7969-1.7812 0-0.96875-0.79688-1.7656-1.7969-1.7656-0.96875 0-1.7344 0.79688-1.7344 1.7656 0 0.98438 0.76562 1.7812 1.7344 1.7812zm-1.5156 13.406c0 0.25 0.23438 0.48438 0.5 0.48438h2.125c0.25 0 0.48438-0.23438 0.48438-0.48438v-9.2812c0-0.28125-0.23438-0.48438-0.48438-0.48438h-2.125c-0.26562 0-0.5 0.20312-0.5 0.48438z"/>
</symbol>
<symbol id="ap" overflow="visible">
<path d="m0.75-5.125c0 3.0781 2.5312 5.375 5.4219 5.375 1.8281 0 3.1875-0.78125 4.0625-2.1406 0.17188-0.26562 0.07813-0.51562-0.1875-0.71875l-1.0938-0.95312c-0.20312-0.15625-0.46875-0.10938-0.64062 0.078125-0.46875 0.4375-0.95312 0.96875-2.0625 0.96875-1.375 0-2.4844-1.1562-2.4844-2.6094 0-1.4375 1.125-2.625 2.5156-2.625 0.71875 0 1.3594 0.35938 1.7656 0.82812 0.1875 0.15625 0.42188 0.28125 0.64062 0.078125l1.1875-1.125c0.25-0.1875 0.29688-0.5 0.125-0.71875-0.96875-1.1875-2.2031-1.8281-3.7969-1.8281-2.875 0-5.4531 2.3594-5.4531 5.3906z"/>
</symbol>
<symbol id="ao" overflow="visible"></symbol>
<symbol id="an" overflow="visible">
<path d="m2.3281-0.48438c0 0.25 0.20312 0.48438 0.5 0.48438h2.3438c0.26562 0 0.5-0.23438 0.5-0.48438v-6.4844h6.3281c0.25 0 0.48438-0.23438 0.48438-0.5v-2.0938c0-0.26562-0.23438-0.48438-0.48438-0.48438h-6.3281v-4.8281h7.5781c0.28125 0 0.5-0.23438 0.5-0.48438v-2.1094c0-0.25-0.21875-0.48438-0.5-0.48438h-10.422c-0.29688 0-0.5 0.23438-0.5 0.48438z"/>
</symbol>
<symbol id="am" overflow="visible">
<path d="m0.75-5.1562c0 2.9531 2.3594 5.4062 5.25 5.4062s5.25-2.4531 5.25-5.4062c0-2.8906-2.3594-5.3594-5.25-5.3594s-5.25 2.4688-5.25 5.3594zm2.7812 0c0-1.4375 1.0781-2.5938 2.4688-2.5938 1.3594 0 2.4688 1.1562 2.4688 2.5938 0 1.4688-1.1094 2.6406-2.4688 2.6406-1.3906 0-2.4688-1.1719-2.4688-2.6406z"/>
</symbol>
<symbol id="al" overflow="visible">
<path d="m1.5312-0.48438c0 0.25 0.23438 0.48438 0.5 0.48438h1.9688c0.35938 0 0.59375-0.125 0.59375-0.48438v-6.2031c0.17188-0.35938 0.79688-1.0625 1.8125-1.0625 0.28125 0 0.67188 0.14062 0.75 0.15625 0.20312 0.10938 0.45312 0 0.59375-0.23438l0.9375-1.6562c0.3125-0.64062-0.76562-1.0312-1.9688-1.0312-1.5938 0-2.5469 1.0781-2.8906 1.5938l-0.35938-1c-0.078125-0.20312-0.23438-0.32812-0.46875-0.32812h-0.96875c-0.26562 0-0.5 0.20312-0.5 0.48438z"/>
</symbol>
<symbol id="av" overflow="visible">
<path d="m0.76562-5.125c0 2.9531 2.1875 5.375 5.2656 5.375 1.6562 0 2.9688-0.60938 3.8125-1.4062 0.26562-0.20312 0.20312-0.48438 0.03125-0.67188l-1.0469-1.2031c-0.1875-0.20312-0.42188-0.14062-0.67188 0-0.46875 0.34375-1.2031 0.64062-2 0.64062-1.4844 0-2.3906-1.1719-2.4688-2.2188h6.5625c0.23438 0 0.46875-0.1875 0.5-0.4375 0.01563-0.1875 0.04687-0.51562 0.04687-0.70312 0-2.7656-2.1562-4.7656-4.7969-4.7656-3.0469 0-5.2344 2.4844-5.2344 5.3906zm3.1562-1.2812c0.125-0.98438 0.96875-1.75 2-1.75 0.96875 0 1.7969 0.79688 1.875 1.75z"/>
</symbol>
<symbol id="au" overflow="visible">
<path d="m1.125-0.6875c0.54688 0.40625 1.7188 0.9375 3.4062 0.9375 2.5938 0 4.0781-1.4219 4.0781-3.125 0-2-1.4844-2.8438-3.4531-3.6094-0.95312-0.39062-1.4062-0.54688-1.4062-1 0-0.34375 0.25-0.59375 0.85938-0.59375 0.98438 0 2.1406 0.54688 2.1406 0.54688 0.20312 0.0625 0.48438 0.046875 0.60938-0.1875l0.64062-1.3125c0.125-0.25 0-0.53125-0.23438-0.6875-0.53125-0.35938-1.6406-0.79688-3.1562-0.79688-2.6094 0-3.7656 1.4688-3.7656 3.0312s0.92188 2.6094 2.9062 3.375c1.3594 0.54688 1.7188 0.82812 1.7188 1.2812 0 0.4375-0.35938 0.65625-0.875 0.65625-1.1875 0-2.3438-0.625-2.3438-0.625-0.21875-0.125-0.48438-0.078125-0.57812 0.1875l-0.70312 1.375c-0.09375 0.20312 0 0.40625 0.15625 0.54688z"/>
</symbol>
<symbol id="at" overflow="visible">
<path d="m2.0781-3.0469c0 2.0781 0.875 3.2969 2.8438 3.2969 1.25 0 2.9219-0.57812 3.0469-0.65625 0.26562-0.10938 0.39062-0.35938 0.28125-0.625l-0.5-1.6094c-0.078125-0.25-0.28125-0.39062-0.57812-0.28125-0.28125 0.09375-0.8125 0.28125-1.25 0.28125-0.40625 0-0.79688-0.10938-0.79688-0.82812v-4.0938h2.2656c0.28125 0 0.48438-0.23438 0.48438-0.48438v-1.7188c0-0.28125-0.20312-0.48438-0.48438-0.48438h-2.2656v-2.875c0-0.26562-0.20312-0.48438-0.45312-0.48438l-2.1094 0.015625c-0.25 0-0.48438 0.23438-0.48438 0.48438v2.8594h-0.875c-0.25 0-0.45312 0.20312-0.45312 0.48438v1.7188c0 0.25 0.20312 0.48438 0.45312 0.48438h0.875z"/>
</symbol>
<symbol id="e" overflow="visible">
<path d="m0.78125-0.17188c0 0.09375 0.078125 0.17188 0.17188 0.17188h0.79688c0.078125 0 0.15625-0.078125 0.15625-0.17188v-2.1719h2.1406c0.078125 0 0.15625-0.078125 0.15625-0.17188v-0.70312c0-0.09375-0.078125-0.17188-0.15625-0.17188h-2.1406v-1.625h2.5625c0.09375 0 0.15625-0.078125 0.15625-0.15625v-0.71875c0-0.078125-0.0625-0.15625-0.15625-0.15625h-3.5156c-0.09375 0-0.17188 0.078125-0.17188 0.15625z"/>
</symbol>
<symbol id="a" overflow="visible"></symbol>
<symbol id="d" overflow="visible">
<path d="m0.14062 0h0.76562c0.125 0 0.20312-0.09375 0.25-0.17188l0.42188-0.9375h2.5781l0.42188 0.9375c0.0625 0.125 0.125 0.17188 0.25 0.17188h0.75c0.14062 0 0.20312-0.10938 0.15625-0.21875l-2.6719-5.8281c-0.015625-0.046875-0.0625-0.09375-0.14062-0.09375h-0.09375c-0.078125 0-0.10938 0.046875-0.14062 0.09375l-2.6875 5.8281c-0.046875 0.10938 0.015625 0.21875 0.14062 0.21875zm1.8594-2.0625 0.84375-1.9062h0.03125l0.85938 1.9062z"/>
</symbol>
<symbol id="ah" overflow="visible">
<path d="m0.39062-0.20312c-0.015625 0.125 0.046875 0.20312 0.15625 0.20312h0.78125c0.078125 0 0.15625-0.0625 0.15625-0.125l0.5-3.2812h0.03125l1.5312 3.3906c0.015625 0.0625 0.0625 0.10938 0.14062 0.10938h0.15625c0.078125 0 0.125-0.046875 0.14062-0.10938l1.5156-3.3906h0.03125l0.51562 3.2812c0.015625 0.0625 0.078125 0.125 0.15625 0.125h0.78125c0.125 0 0.1875-0.078125 0.15625-0.20312l-1.0156-5.7969c0-0.078125-0.0625-0.14062-0.15625-0.14062h-0.14062c-0.078125 0-0.10938 0.046875-0.14062 0.09375l-1.9062 4.0781h-0.015625l-1.9062-4.0781c-0.03125-0.046875-0.078125-0.09375-0.15625-0.09375h-0.125c-0.09375 0-0.15625 0.0625-0.15625 0.14062z"/>
</symbol>
<symbol id="ag" overflow="visible">
<path d="m0.78125-0.17188c0 0.09375 0.078125 0.17188 0.17188 0.17188h0.79688c0.09375 0 0.17188-0.078125 0.17188-0.17188v-5.7188c0-0.078125-0.078125-0.15625-0.17188-0.15625h-0.79688c-0.09375 0-0.17188 0.078125-0.17188 0.15625z"/>
</symbol>
<symbol id="c" overflow="visible">
<path d="m0.78125-0.17188c0 0.09375 0.078125 0.17188 0.17188 0.17188h3.1562c0.09375 0 0.17188-0.078125 0.17188-0.17188v-0.70312c0-0.078125-0.078125-0.15625-0.17188-0.15625h-2.2031v-4.8594c0-0.078125-0.078125-0.15625-0.15625-0.15625h-0.79688c-0.09375 0-0.17188 0.078125-0.17188 0.15625z"/>
</symbol>
<symbol id="af" overflow="visible">
<path d="m1.9375-0.17188c0 0.09375 0.078125 0.17188 0.17188 0.17188h0.79688c0.078125 0 0.15625-0.078125 0.15625-0.17188v-2.75l2-2.875c0.0625-0.10938 0-0.25-0.14062-0.25h-0.89062c-0.0625 0-0.10938 0.046875-0.14062 0.078125l-1.375 1.9844-1.3906-1.9844c-0.015625-0.03125-0.0625-0.078125-0.125-0.078125h-0.89062c-0.14062 0-0.20312 0.14062-0.14062 0.25l1.9688 2.8906z"/>
</symbol>
<symbol id="ae" overflow="visible">
<path d="m0.70312-2.2969c0 1.3281 1.0469 2.3906 2.4062 2.3906s2.4062-1.0625 2.4062-2.3906v-3.5938c0-0.078125-0.078125-0.15625-0.17188-0.15625h-0.8125c-0.09375 0-0.17188 0.078125-0.17188 0.15625v3.5469c0 0.73438-0.5 1.3125-1.25 1.3125-0.76562 0-1.2656-0.57812-1.2656-1.3125v-3.5469c0-0.078125-0.0625-0.15625-0.15625-0.15625h-0.82812c-0.078125 0-0.15625 0.078125-0.15625 0.15625z"/>
</symbol>
<symbol id="ad" overflow="visible">
<path d="m0.78125-0.17188c0 0.09375 0.078125 0.17188 0.17188 0.17188h0.78125c0.09375 0 0.17188-0.078125 0.17188-0.17188v-3.7031l3.6094 3.9688h0.21875c0.078125 0 0.15625-0.078125 0.15625-0.15625v-5.8281c0-0.078125-0.078125-0.15625-0.15625-0.15625h-0.79688c-0.09375 0-0.17188 0.078125-0.17188 0.15625v3.5781l-3.5938-3.8281h-0.21875c-0.09375 0-0.17188 0.078125-0.17188 0.15625z"/>
</symbol>
<symbol id="ak" overflow="visible">
<path d="m0.78125-0.17188c0 0.09375 0.078125 0.17188 0.17188 0.17188h0.79688c0.078125 0 0.15625-0.078125 0.15625-0.17188v-2.0156h1.0781c1.0625 0 1.9375-0.875 1.9375-1.9531 0-1.0469-0.875-1.9062-1.9375-1.9062h-2.0312c-0.09375 0-0.17188 0.078125-0.17188 0.15625zm1.125-3.0781v-1.7344h1c0.48438 0 0.89062 0.35938 0.89062 0.84375 0 0.5-0.40625 0.89062-0.89062 0.89062z"/>
</symbol>
<symbol id="aj" overflow="visible">
<path d="m0.34375-3.0156c0 1.7344 1.3906 3.1094 3.125 3.1094 0.76562 0 1.5156-0.28125 2.0938-0.84375 0.0625-0.0625 0.078125-0.17188 0.015625-0.23438l-0.54688-0.54688c-0.046875-0.0625-0.14062-0.0625-0.20312 0-0.375 0.28125-0.8125 0.48438-1.3281 0.48438-1.1094 0-1.9375-0.92188-1.9375-2s0.82812-2.0156 1.9219-2.0156c0.48438 0 0.96875 0.20312 1.3438 0.51562 0.0625 0.078125 0.15625 0.078125 0.20312 0l0.53125-0.54688c0.078125-0.0625 0.078125-0.17188 0-0.23438-0.59375-0.53125-1.2188-0.8125-2.0938-0.8125-1.7344 0-3.125 1.3906-3.125 3.125z"/>
</symbol>
<symbol id="ai" overflow="visible">
<path d="m0.78125-0.17188c0 0.09375 0.078125 0.17188 0.17188 0.17188h3.5156c0.09375 0 0.15625-0.078125 0.15625-0.17188v-0.70312c0-0.078125-0.0625-0.15625-0.15625-0.15625h-2.5625v-1.5156h2.1406c0.078125 0 0.15625-0.078125 0.15625-0.17188v-0.71875c0-0.078125-0.078125-0.15625-0.15625-0.15625h-2.1406v-1.4219h2.5625c0.09375 0 0.15625-0.078125 0.15625-0.15625v-0.71875c0-0.078125-0.0625-0.15625-0.15625-0.15625h-3.5156c-0.09375 0-0.17188 0.078125-0.17188 0.15625z"/>
</symbol>
<filter id="b" x="0" y="0" width="1" height="1">
<feColorMatrix in="SourceGraphic" values="0 0 0 0 1 0 0 0 0 1 0 0 0 0 1 0 0 0 1 0"/>
</filter>
<clipPath>
<path d="m0.26172 0.96094h64.383v64.379h-64.383z"/>
</clipPath>
<clipPath id="dq">
<rect width="65" height="66"/>
</clipPath>
<g clip-path="url(#dq)"></g>
<clipPath>
<path d="m0.61328 0.89844h83.52v83.523h-83.52z"/>
</clipPath>
<clipPath id="cv">
<rect width="85" height="85"/>
</clipPath>
<g clip-path="url(#cv)"></g>
<clipPath>
<path d="m0.42969 0.19531h56.262v56.266h-56.262z"/>
</clipPath>
<clipPath id="ck">
<rect width="57" height="57"/>
</clipPath>
<g clip-path="url(#ck)"></g>
<clipPath>
<path d="m0.14453 0.69922h83.52v83.52h-83.52z"/>
</clipPath>
<clipPath id="bp">
<rect width="84" height="85"/>
</clipPath>
<g clip-path="url(#bp)"></g>
<clipPath>
<path d="m0.89844 0.56641h52.074v52.074h-52.074z"/>
</clipPath>
<clipPath id="bc">
<rect width="53" height="53"/>
</clipPath>
<g clip-path="url(#bc)"></g>
<clipPath>
<path d="m0.54297 0.85156h57.836v57.832h-57.836z"/>
</clipPath>
<clipPath id="dk">
<rect width="59" height="59"/>
</clipPath>
<g clip-path="url(#dk)"></g>
<clipPath>
<path d="m0.44531 0.27734h64.383v64.379h-64.383z"/>
</clipPath>
<clipPath id="de">
<rect width="65" height="65"/>
</clipPath>
<g clip-path="url(#de)"></g>
<clipPath>
<path d="m0.35547 0.070312h91.816v91.816h-91.816z"/>
</clipPath>
<clipPath id="dd">
<rect width="93" height="92"/>
</clipPath>
<g clip-path="url(#dd)"></g>
<clipPath>
<path d="m0.73047 0.87109h23.402v29.168h-23.402z"/>
</clipPath>
<clipPath id="dc">
<rect width="25" height="31"/>
</clipPath>
<g clip-path="url(#dc)"></g>
<clipPath>
<path d="m0.49609 0.375h18.148v25.121h-18.148z"/>
</clipPath>
<clipPath id="db">
<rect width="19" height="26"/>
</clipPath>
<g clip-path="url(#db)"></g>
<clipPath>
<path d="m0.3125 0.042969h32.652v41.453h-32.652z"/>
</clipPath>
<clipPath id="da">
<rect width="33" height="42"/>
</clipPath>
<g clip-path="url(#da)"></g>
<clipPath>
<path d="m0.55078 0.57812h20.973v56.859h-20.973z"/>
</clipPath>
<clipPath id="cz">
<rect width="22" height="58"/>
</clipPath>
<g clip-path="url(#cz)"></g>
<clipPath>
<path d="m0.90625 0.50391h40.062v40.062h-40.062z"/>
</clipPath>
<clipPath id="cy">
<rect width="41" height="41"/>
</clipPath>
<g clip-path="url(#cy)"></g>
<clipPath>
<path d="m0.32422 0.30859h51.973v51.973h-51.973z"/>
</clipPath>
<clipPath id="cx">
<rect width="53" height="53"/>
</clipPath>
<g clip-path="url(#cx)"></g>
<clipPath>
<path d="m0.76172 0.64844h35.012v35.012h-35.012z"/>
</clipPath>
<clipPath id="cw">
<rect width="36" height="36"/>
</clipPath>
<g clip-path="url(#cw)"></g>
<clipPath>
<path d="m0.92188 0.67578h51.973v51.973h-51.973z"/>
</clipPath>
<clipPath id="cu">
<rect width="53" height="53"/>
</clipPath>
<g clip-path="url(#cu)"></g>
<clipPath>
<path d="m0.52344 0.90625h32.402v32.402h-32.402z"/>
</clipPath>
<clipPath id="ct">
<rect width="33" height="34"/>
</clipPath>
<g clip-path="url(#ct)"></g>
<clipPath>
<path d="m0.34766 0.30469h35.988v35.988h-35.988z"/>
</clipPath>
<clipPath id="cs">
<rect width="37" height="37"/>
</clipPath>
<g clip-path="url(#cs)"></g>
<clipPath>
<path d="m0.375 0.43359h40.062v40.059h-40.062z"/>
</clipPath>
<clipPath id="cr">
<rect width="41" height="41"/>
</clipPath>
<g clip-path="url(#cr)"></g>
<clipPath>
<path d="m0.18359 0.90234h57.133v57.133h-57.133z"/>
</clipPath>
<clipPath id="cq">
<rect width="58" height="59"/>
</clipPath>
<g clip-path="url(#cq)"></g>
<clipPath>
<path d="m0.70703 0.89453h14.562v18.148h-14.562z"/>
</clipPath>
<clipPath id="cp">
<rect width="16" height="20"/>
</clipPath>
<g clip-path="url(#cp)"></g>
<clipPath>
<path d="m0.40625 0.44922h11.297v15.633h-11.297z"/>
</clipPath>
<clipPath id="co">
<rect width="12" height="17"/>
</clipPath>
<g clip-path="url(#co)"></g>
<clipPath>
<path d="m0.11328 0.28906h20.32v25.793h-20.32z"/>
</clipPath>
<clipPath id="cn">
<rect width="21" height="27"/>
</clipPath>
<g clip-path="url(#cn)"></g>
<clipPath>
<path d="m0.17188 0.91016h13.055v35.379h-13.055z"/>
</clipPath>
<clipPath id="cm">
<rect width="14" height="37"/>
</clipPath>
<g clip-path="url(#cm)"></g>
<mask id="ac">
<g filter="url(#b)">
<rect width="841.89" height="595.28" fill-opacity=".37"/>
</g>
</mask>
<clipPath id="cj">
<path d="m0.09375 0.98047h28.762v28.766h-28.762z"/>
</clipPath>
<clipPath id="cl">
<rect width="29" height="30"/>
</clipPath>
<g id="q" clip-path="url(#cl)">
<g clip-path="url(#cj)">
<path d="m28.855 15.363c0 7.9414-6.4375 14.383-14.383 14.383-7.9414 0-14.379-6.4414-14.379-14.383 0-7.9414 6.4375-14.383 14.379-14.383 7.9453 0 14.383 6.4414 14.383 14.383" fill="#85c78c"/>
</g>
</g>
<mask id="ab">
<g filter="url(#b)">
<rect width="841.89" height="595.28" fill-opacity=".37"/>
</g>
</mask>
<clipPath id="ch">
<path d="m0.1875 0.76562h37.312v37.312h-37.312z"/>
</clipPath>
<clipPath id="ci">
<rect width="38" height="39"/>
</clipPath>
<g id="p" clip-path="url(#ci)">
<g clip-path="url(#ch)">
<path d="m37.5 19.422c0 10.305-8.3516 18.656-18.656 18.656-10.305 0-18.656-8.3516-18.656-18.656 0-10.305 8.3516-18.656 18.656-18.656 10.305 0 18.656 8.3516 18.656 18.656" fill="#cce191"/>
</g>
</g>
<mask id="aa">
<g filter="url(#b)">
<rect width="841.89" height="595.28" fill-opacity=".37"/>
</g>
</mask>
<clipPath id="cf">
<path d="m0.066406 0.085938h25.137v25.137h-25.137z"/>
</clipPath>
<clipPath id="cg">
<rect width="26" height="26"/>
</clipPath>
<g id="o" clip-path="url(#cg)">
<g clip-path="url(#cf)">
<path d="m25.203 12.656c0 6.9375-5.6289 12.566-12.57 12.566-6.9414 0-12.566-5.6289-12.566-12.566 0-6.9414 5.625-12.57 12.566-12.57 6.9414 0 12.57 5.6289 12.57 12.57" fill="#a3d4a1"/>
</g>
</g>
<mask id="z">
<g filter="url(#b)">
<rect width="841.89" height="595.28" fill-opacity=".37"/>
</g>
</mask>
<clipPath id="cd">
<path d="m0.74219 0.56641h37.316v37.312h-37.316z"/>
</clipPath>
<clipPath id="ce">
<rect width="39" height="38"/>
</clipPath>
<g id="n" clip-path="url(#ce)">
<g clip-path="url(#cd)">
<path d="m38.059 19.223c0 10.305-8.3555 18.656-18.656 18.656-10.305 0-18.656-8.3516-18.656-18.656 0-10.305 8.3516-18.656 18.656-18.656 10.301 0 18.656 8.3516 18.656 18.656" fill="#8fd1f3"/>
</g>
</g>
<mask id="y">
<g filter="url(#b)">
<rect width="841.89" height="595.28" fill-opacity=".37"/>
</g>
</mask>
<clipPath id="cb">
<path d="m0.63672 0.78125h23.266v23.266h-23.266z"/>
</clipPath>
<clipPath id="cc">
<rect width="24" height="25"/>
</clipPath>
<g id="m" clip-path="url(#cc)">
<g clip-path="url(#cb)">
<path d="m23.902 12.414c0 6.4258-5.207 11.633-11.633 11.633-6.4258 0-11.633-5.207-11.633-11.633 0-6.4219 5.207-11.629 11.633-11.629 6.4258 0 11.633 5.207 11.633 11.629" fill="#85c78c"/>
</g>
</g>
<mask id="x">
<g filter="url(#b)">
<rect width="841.89" height="595.28" fill-opacity=".37"/>
</g>
</mask>
<clipPath id="bz">
<path d="m0.43359 0.37891h25.84v25.836h-25.84z"/>
</clipPath>
<clipPath id="ca">
<rect width="27" height="27"/>
</clipPath>
<g id="l" clip-path="url(#ca)">
<g clip-path="url(#bz)">
<path d="m26.273 13.297c0 7.1328-5.7852 12.918-12.922 12.918-7.1328 0-12.918-5.7852-12.918-12.918 0-7.1367 5.7852-12.922 12.918-12.922 7.1367 0 12.922 5.7852 12.922 12.922" fill="#faf5b3"/>
</g>
</g>
<mask id="w">
<g filter="url(#b)">
<rect width="841.89" height="595.28" fill-opacity=".37"/>
</g>
</mask>
<clipPath id="bx">
<path d="m0.19922 0.69922h28.762v28.766h-28.762z"/>
</clipPath>
<clipPath id="by">
<rect width="29" height="30"/>
</clipPath>
<g id="k" clip-path="url(#by)">
<g clip-path="url(#bx)">
<path d="m28.961 15.082c0 7.9414-6.4375 14.379-14.383 14.379-7.9414 0-14.379-6.4375-14.379-14.379 0-7.9414 6.4375-14.383 14.379-14.383 7.9453 0 14.383 6.4414 14.383 14.383" fill="#a8d4a1"/>
</g>
</g>
<mask id="v">
<g filter="url(#b)">
<rect width="841.89" height="595.28" fill-opacity=".37"/>
</g>
</mask>
<clipPath id="bv">
<path d="m0.39453 0.62891h41.02v41.02h-41.02z"/>
</clipPath>
<clipPath id="bw">
<rect width="42" height="42"/>
</clipPath>
<g id="j" clip-path="url(#bw)">
<g clip-path="url(#bv)">
<path d="m41.414 21.137c0 11.328-9.1836 20.512-20.512 20.512-11.324 0-20.508-9.1836-20.508-20.512 0-11.324 9.1836-20.508 20.508-20.508 11.328 0 20.512 9.1836 20.512 20.508" fill="#abdcd4"/>
</g>
</g>
<mask id="u">
<g filter="url(#b)">
<rect width="841.89" height="595.28" fill-opacity=".89999"/>
</g>
</mask>
<clipPath id="bt">
<path d="m0.41016 0.87891h10.457v13.027h-10.457z"/>
</clipPath>
<clipPath id="bu">
<rect width="11" height="14"/>
</clipPath>
<g id="i" clip-path="url(#bu)">
<g clip-path="url(#bt)">
<path d="m8.8906 7.9219c0.24609-0.44922 0.37891-0.91016 0.33984-1.3086-0.082031-0.8125-0.83203-1.1133-1.7656-0.78516 0.27734-0.55859 0.40625-1.1328 0.31641-1.5938-0.14453-0.71875-0.78906-0.94531-1.5703-0.64062 0.11328-0.375 0.14453-0.75 0.050781-1.0586-0.19141-0.64453-0.82031-0.78906-1.4961-0.41016-0.39062-0.57812-0.80859-0.99219-1.2188-1.1641-0.94922-0.39062-1.5938 0.60547-1.7109 2.3633-0.39453 0.054687-0.72266 0.21875-0.90234 0.49219-0.34375 0.51953-0.019531 1.2422 0.71875 1.707-0.52734 0.24609-0.92578 0.61719-1.0742 1.0586-0.22656 0.67578 0.20703 1.3086 1.0117 1.6172-0.54688 0.24219-0.96875 0.625-1.1211 1.0781-0.20312 0.60938 0.13281 1.1875 0.78906 1.5195-0.34375 0.26172-0.59766 0.57812-0.71875 0.92969-0.35156 1.0469 0.61328 2.0156 2.1523 2.1602 1.5391 0.14844 3.0703-0.57812 3.4219-1.625 0.023438-0.07813 0.042969-0.15234 0.050782-0.22656 0.37109 0.68359 1.3672 0.78516 2.4727 0.17188 1.3359-0.74219 2.332-2.2383 2.2227-3.3477-0.09375-0.91797-0.92188-1.2734-1.9688-0.9375" fill="#de238f"/>
</g>
</g>
<mask id="t">
<g filter="url(#b)">
<rect width="841.89" height="595.28" fill-opacity=".89999"/>
</g>
</mask>
<clipPath id="br">
<path d="m0.32422 0.99609h8.1094v11.223h-8.1094z"/>
</clipPath>
<clipPath id="bs">
<rect width="9" height="13"/>
</clipPath>
<g id="h" clip-path="url(#bs)">
<g clip-path="url(#br)">
<path d="m8.2617 6.9375c-0.17578-0.19531-0.46875-0.26562-0.83594-0.22266 0.88281-1.5625 1.1172-3.043 0.49609-3.4492-0.33203-0.21875-0.85547-0.082031-1.4336 0.3125 0.082032-1.3789-0.22656-2.4297-0.82812-2.5664-0.63281-0.14453-1.3984 0.75-1.9258 2.1211-0.28125-0.41797-0.59766-0.65625-0.91797-0.63281-0.63281 0.054688-1.0938 1.0977-1.1953 2.5234-0.21484-0.11328-0.42188-0.14844-0.60547-0.09375-0.78906 0.25-0.92188 2.0703-0.29688 4.0664 0.51953 1.6445 1.3867 2.8945 2.1172 3.1484 0.70312 0.30078 2.207-0.33203 3.5938-1.5664 1.5625-1.3945 2.3828-3.0234 1.832-3.6406" fill="#0cbfe8"/>
</g>
</g>
<mask id="s">
<g filter="url(#b)">
<rect width="841.89" height="595.28" fill-opacity=".89999"/>
</g>
</mask>
<clipPath id="bo">
<path d="m0.62891 0.69922h14.586v18.52h-14.586z"/>
</clipPath>
<clipPath id="bq">
<rect width="16" height="20"/>
</clipPath>
<g id="g" clip-path="url(#bq)">
<g clip-path="url(#bo)">
<path d="m15.086 12.117c-0.19141-0.39844-0.5625-0.67578-1.0391-0.82031 0.82812-1.4648 0.97266-2.8867 0.23438-3.625-0.5625-0.55859-1.5156-0.60938-2.5859-0.23828 0.25781-0.33594 0.41406-0.74609 0.41406-1.1953 0-0.84766-0.55078-1.5742-1.332-1.8672 0.05078-0.23438 0.08203-0.48047 0.08203-0.73047 0-1.625-1.1328-2.9414-2.5352-2.9414-1.3984 0-2.5312 1.3164-2.5312 2.9414v0.00391c-1.3008 0.42578-2.2695 1.5391-2.4219 2.8867-1.0039 0.15234-1.7734 0.98047-1.7734 1.9844 0 0.24609 0.046875 0.48047 0.13281 0.69922-0.23828 0.054687-0.45703 0.15625-0.63281 0.31641-0.84375 0.76172-0.51953 2.4961 0.72266 3.8711 0.125 0.13672 0.25391 0.26172 0.38281 0.37891-0.57812 0.35938-0.96094 0.98047-0.96094 1.6875 0 1.1133 0.94531 2.0117 2.1055 2.0117 0.42578 0 0.82031-0.12109 1.1484-0.32422 0.5625 1.2148 1.832 2.0625 3.3125 2.0625 1.0312 0 1.957-0.41406 2.6172-1.0742 0.23828 0.06641 0.48828 0.10547 0.75 0.10547 1.4805 0 2.6836-1.1484 2.6836-2.5664 0-0.26172-0.04297-0.51953-0.12109-0.75781 1.1641-0.76172 1.7578-1.9336 1.3477-2.8086" fill="#fdd40a"/>
</g>
</g>
<mask id="r">
<g filter="url(#b)">
<rect width="841.89" height="595.28" fill-opacity=".89999"/>
</g>
</mask>
<clipPath id="bm">
<path d="m0.92578 0.68359h9.3711v25.402h-9.3711z"/>
</clipPath>
<clipPath id="bn">
<rect width="11" height="27"/>
</clipPath>
<g id="f" clip-path="url(#bn)">
<g clip-path="url(#bm)">
<path d="m9.8398 15.551c0.18359-0.58203 0.3125-1.2539 0.36328-1.9766 0.16797-2.2383-0.4375-4.1133-1.3672-4.2734-0.019532-0.42188-0.058594-0.85547-0.12109-1.3008-0.375-2.7266-1.4727-4.9297-2.668-5.6367-0.25-0.98438-0.83984-1.6797-1.5273-1.6797-0.91016 0-1.6523 1.2188-1.6523 2.7266 0 0.31641 0.035156 0.61719 0.09375 0.89844-0.27344-0.097656-0.53906-0.10938-0.76562-0.011719-0.86719 0.36328-0.98438 2.082-0.3125 3.9414-0.18359 0.80859-0.29297 1.7461-0.29297 2.7539 0 0.09375 0.00391 0.17969 0.00391 0.26953-0.76953 0.51172-0.84766 2.8086-0.13672 5.3789 0.078125 0.28516 0.16406 0.5625 0.25781 0.83203-1.0156 0.51953-1.0586 2.582-0.089844 4.6406 0.80078 1.6992 2.0391 2.8672 3.0352 2.9766 0.52734 0.69141 1.0859 1.0625 1.625 0.98828 0.76172-0.10547 1.332-1.0781 1.6367-2.5586 0.97266-0.41406 1.8984-2.0234 2.2422-4.0547 0.26562-1.5664 0.11719-3.0117-0.32422-3.9141" fill="#6ebd42"/>
</g>
</g>
<clipPath>
<path d="m0.49219 0.44922h64.379v64.379h-64.379z"/>
</clipPath>
<clipPath id="bl">
<rect width="65" height="65"/>
</clipPath>
<g clip-path="url(#bl)"></g>
<clipPath>
<path d="m0.84375 0.38672h83.52v83.52h-83.52z"/>
</clipPath>
<clipPath id="bk">
<rect width="85" height="84"/>
</clipPath>
<g clip-path="url(#bk)"></g>
<clipPath>
<path d="m0.66016 0.68359h56.262v56.262h-56.262z"/>
</clipPath>
<clipPath id="bj">
<rect width="57" height="57"/>
</clipPath>
<g clip-path="url(#bj)"></g>
<clipPath>
<path d="m0.375 0.1875h83.52v83.52h-83.52z"/>
</clipPath>
<clipPath id="bi">
<rect width="84" height="84"/>
</clipPath>
<g clip-path="url(#bi)"></g>
<clipPath>
<path d="m0.12891 0.054688h52.074v52.074h-52.074z"/>
</clipPath>
<clipPath id="bh">
<rect width="53" height="53"/>
</clipPath>
<g clip-path="url(#bh)"></g>
<clipPath>
<path d="m0.77344 0.33594h57.836v57.836h-57.836z"/>
</clipPath>
<clipPath id="bg">
<rect width="59" height="59"/>
</clipPath>
<g clip-path="url(#bg)"></g>
<clipPath>
<path d="m0.67578 0.76562h64.383v64.379h-64.383z"/>
</clipPath>
<clipPath id="bf">
<rect width="66" height="66"/>
</clipPath>
<g clip-path="url(#bf)"></g>
<clipPath>
<path d="m0.58594 0.55859h91.816v91.812h-91.816z"/>
</clipPath>
<clipPath id="be">
<rect width="93" height="93"/>
</clipPath>
<g clip-path="url(#be)"></g>
<clipPath>
<path d="m0.96094 0.35938h23.402v29.164h-23.402z"/>
</clipPath>
<clipPath id="bd">
<rect width="25" height="30"/>
</clipPath>
<g clip-path="url(#bd)"></g>
<clipPath>
<path d="m0.72656 0.86328h18.148v25.121h-18.148z"/>
</clipPath>
<clipPath id="bb">
<rect width="19" height="26"/>
</clipPath>
<g clip-path="url(#bb)"></g>
<clipPath>
<path d="m0.54297 0.53125h32.652v41.453h-32.652z"/>
</clipPath>
<clipPath id="ba">
<rect width="34" height="42"/>
</clipPath>
<g clip-path="url(#ba)"></g>
<clipPath>
<path d="m0.77734 0.0625h20.977v56.863h-20.977z"/>
</clipPath>
<clipPath id="az">
<rect width="22" height="57"/>
</clipPath>
<g clip-path="url(#az)"></g>
<clipPath>
<path d="m0.25781 0.83984h64.379v64.379h-64.379z"/>
</clipPath>
<clipPath id="ay">
<rect width="65" height="66"/>
</clipPath>
<g clip-path="url(#ay)"></g>
<clipPath>
<path d="m0.60547 0.77734h83.523v83.52h-83.523z"/>
</clipPath>
<clipPath id="ax">
<rect width="85" height="85"/>
</clipPath>
<g clip-path="url(#ax)"></g>
<clipPath>
<path d="m0.42188 0.074219h56.266v56.262h-56.266z"/>
</clipPath>
<clipPath id="dp">
<rect width="57" height="57"/>
</clipPath>
<g clip-path="url(#dp)"></g>
<clipPath>
<path d="m0.13672 0.57812h83.52v83.52h-83.52z"/>
</clipPath>
<clipPath id="do">
<rect width="84" height="85"/>
</clipPath>
<g clip-path="url(#do)"></g>
<clipPath>
<path d="m0.89062 0.44531h52.074v52.074h-52.074z"/>
</clipPath>
<clipPath id="dn">
<rect width="53" height="53"/>
</clipPath>
<g clip-path="url(#dn)"></g>
<clipPath>
<path d="m0.53516 0.72656h57.836v57.836h-57.836z"/>
</clipPath>
<clipPath id="dm">
<rect width="59" height="59"/>
</clipPath>
<g clip-path="url(#dm)"></g>
<clipPath>
<path d="m0.44141 0.15625h64.379v64.379h-64.379z"/>
</clipPath>
<clipPath id="dl">
<rect width="65" height="65"/>
</clipPath>
<g clip-path="url(#dl)"></g>
<clipPath>
<path d="m0.35156 0.94922h91.812v91.812h-91.812z"/>
</clipPath>
<clipPath id="dj">
<rect width="93" height="93"/>
</clipPath>
<g clip-path="url(#dj)"></g>
<clipPath>
<path d="m0.72266 0.74609h23.402v29.168h-23.402z"/>
</clipPath>
<clipPath id="di">
<rect width="25" height="30"/>
</clipPath>
<g clip-path="url(#di)"></g>
<clipPath>
<path d="m0.48828 0.25391h18.152v25.121h-18.152z"/>
</clipPath>
<clipPath id="dh">
<rect width="19" height="26"/>
</clipPath>
<g clip-path="url(#dh)"></g>
<clipPath>
<path d="m0.30469 0.92188h32.652v41.453h-32.652z"/>
</clipPath>
<clipPath id="dg">
<rect width="33" height="43"/>
</clipPath>
<g clip-path="url(#dg)"></g>
<clipPath>
<path d="m0.54297 0.45312h20.973v56.863h-20.973z"/>
</clipPath>
<clipPath id="df">
<rect width="22" height="58"/>
</clipPath>
<g clip-path="url(#df)"></g>
</defs>
<g transform="matrix(1.1625 0 0 1.1625 -627.83 -519.29)">
<use transform="translate(581,463)" width="100%" height="100%" mask="url(#ac)" xlink:href="#q"/>
<use transform="translate(569,448)" width="100%" height="100%" mask="url(#ab)" xlink:href="#p"/>
<use transform="translate(540,464)" width="100%" height="100%" mask="url(#aa)" xlink:href="#o"/>
<use transform="translate(566,470)" width="100%" height="100%" mask="url(#z)" xlink:href="#n"/>
<use transform="translate(545,480)" width="100%" height="100%" mask="url(#y)" xlink:href="#m"/>
<use transform="translate(558,485)" width="100%" height="100%" mask="url(#x)" xlink:href="#l"/>
<use transform="translate(564,446)" width="100%" height="100%" mask="url(#w)" xlink:href="#k"/>
<use transform="translate(545,450)" width="100%" height="100%" mask="url(#v)" xlink:href="#j"/>
<path d="m599.86 478.41c0 13.418-10.879 24.293-24.293 24.293-13.418 0-24.293-10.875-24.293-24.293 0-13.418 10.875-24.293 24.293-24.293 13.414 0 24.293 10.875 24.293 24.293" fill="#fff"/>
<use transform="translate(559,472)" width="100%" height="100%" mask="url(#u)" xlink:href="#i"/>
<use transform="translate(584,473)" width="100%" height="100%" mask="url(#t)" xlink:href="#h"/>
<use transform="translate(572,466)" width="100%" height="100%" mask="url(#s)" xlink:href="#g"/>
<use transform="translate(566,460)" width="100%" height="100%" mask="url(#r)" xlink:href="#f"/>
<path d="m565.29 485.41 0.23828-0.0898c0.13281-0.0508 0.28516 0.0234 0.32031 0.16406l0.86719 2.9297-0.71484 0.0547-0.85547-2.7617c-0.0352-0.125 0.0273-0.25 0.14453-0.29687" fill="#996326"/>
<path d="m580.18 470.63c-0.10547 4.707-0.22266 9.4219-0.73438 14.105-0.0195 0.16016 0.23047 0.16016 0.25 0 0.51172-4.6836 0.62891-9.3984 0.73438-14.105 4e-3 -0.16015-0.2461-0.16015-0.25 0" fill="#211e1e"/>
<path d="m580.29 474.46c0.67187-0.50781 1.3906-1.0664 1.918-1.7266 0.0976-0.125-0.0781-0.30469-0.17969-0.17969-0.50781 0.64453-1.2109 1.1992-1.8633 1.6914-0.125 0.0977 0 0.3125 0.125 0.21484" fill="#211e1e"/>
<path d="m578.16 473.09c0.63281 0.49609 1.2852 0.95312 1.9727 1.3672 0.13671 0.082 0.26171-0.13282 0.125-0.21485-0.66797-0.40625-1.3086-0.84765-1.918-1.3281-0.125-0.0977-0.30469 0.0781-0.17969 0.17578" fill="#211e1e"/>
<path d="m580.05 478.88c0.88281-1.2852 2.0508-2.2969 3.4453-2.9922 0.14453-0.0703 0.0156-0.28516-0.12891-0.21485-1.4297 0.71485-2.6289 1.7617-3.5312 3.0781-0.0898 0.13281 0.125 0.25781 0.21485 0.12891" fill="#211e1e"/>
<path d="m576.34 475.51c1.3555 0.96875 2.5508 2.125 3.5625 3.4492 0.0977 0.125 0.3125 0 0.21484-0.125-1.0391-1.3633-2.2578-2.5469-3.6523-3.543-0.12891-0.0937-0.25391 0.125-0.125 0.21875" fill="#211e1e"/>
<path d="m579.76 483c1.1172-1.3203 2.4922-2.3555 4.0703-3.0664 0.14844-0.0664 0.0234-0.28125-0.125-0.21484-1.5938 0.71875-2.9922 1.7695-4.1211 3.1055-0.10157 0.1211 0.0742 0.30079 0.17578 0.17579" fill="#211e1e"/>
<path d="m575.85 478.86c1.4648 1.1797 2.6992 2.5898 3.6758 4.1953 0.082 0.13672 0.29687 0.0117 0.21484-0.125-0.98828-1.625-2.2344-3.0547-3.7109-4.2461-0.125-0.0977-0.30468 0.0781-0.17968 0.17578" fill="#211e1e"/>
<path d="m570.67 463.65c0.45704 7.0352 0.78516 14.078 0.98829 21.125 4e-3 0.16016 0.2539 0.16016 0.25 0-0.20313-7.0469-0.53125-14.09-0.98829-21.125-0.0117-0.16015-0.26171-0.16015-0.25 0" fill="#211e1e"/>
<path d="m568.96 466.04c0.70703 0.77343 1.3594 1.5938 1.9531 2.4609 0.0937 0.12891 0.30859 4e-3 0.21875-0.1289-0.60938-0.88282-1.2734-1.7188-1.9961-2.5078-0.10937-0.11718-0.28515 0.0586-0.17578 0.17579" fill="#211e1e"/>
<path d="m571.26 468.47c0.23047-0.78125 0.57422-1.5 1.0312-2.1758 0.0898-0.13281-0.12891-0.25781-0.21875-0.125-0.46875 0.6914-0.81641 1.4336-1.0547 2.2344-0.0469 0.15625 0.19531 0.21875 0.24219 0.0664" fill="#211e1e"/>
<path d="m571.35 471.25c0.44531-0.89843 1.1602-1.5898 1.8828-2.2695 0.11719-0.11328-0.0586-0.28906-0.17578-0.17969-0.73828 0.69532-1.4688 1.4062-1.9258 2.3242-0.0703 0.14453 0.14453 0.26953 0.21875 0.125" fill="#211e1e"/>
<path d="m569.07 469.32c0.71485 0.60547 1.3867 1.25 2.0117 1.9492 0.10547 0.12109 0.28516-0.0586 0.17578-0.17969-0.625-0.69922-1.2969-1.3398-2.0078-1.9453-0.125-0.10547-0.30078 0.0703-0.17969 0.17578" fill="#211e1e"/>
<path d="m569.35 472.72c0.73438 0.54687 1.3711 1.1836 1.9258 1.918 0.0937 0.1289 0.3086 4e-3 0.21485-0.125-0.57813-0.77344-1.2422-1.4336-2.0156-2.0117-0.1289-0.0937-0.2539 0.12109-0.125 0.21875" fill="#211e1e"/>
<path d="m571.47 474.66c0.63671-0.59765 1.4219-0.98047 2.1562-1.4375 0.13671-0.0859 0.0117-0.30078-0.125-0.21875-0.75391 0.46875-1.5547 0.86719-2.2109 1.4805-0.11719 0.10938 0.0625 0.28516 0.17969 0.17578" fill="#211e1e"/>
<path d="m569.04 475.55c0.91015 0.60157 1.7109 1.3281 2.4062 2.168 0.10156 0.125 0.28125-0.0547 0.17578-0.17578-0.70703-0.85937-1.5273-1.5938-2.4531-2.207-0.13671-0.0898-0.26171 0.12891-0.1289 0.21484" fill="#211e1e"/>
<path d="m571.6 477.73c0.84766-0.48046 1.707-0.94531 2.6406-1.2383 0.15625-0.0469 0.0898-0.28906-0.0664-0.24218-0.95312 0.30078-1.8359 0.77734-2.7031 1.2656-0.13672 0.0781-0.0117 0.29297 0.1289 0.21484" fill="#211e1e"/>
<path d="m569 478.75c0.92187 0.66016 1.8086 1.3672 2.5664 2.2109 0.10937 0.12109 0.28515-0.0547 0.17578-0.17578-0.76953-0.85938-1.6797-1.5781-2.6172-2.25-0.13281-0.0937-0.25391 0.12109-0.125 0.21484" fill="#211e1e"/>
<path d="m571.74 480.96c0.71484-0.625 1.4922-1.1406 2.3438-1.5547 0.14453-0.0703 0.0195-0.28906-0.125-0.21875-0.8711 0.42578-1.668 0.96094-2.3945 1.5977-0.1211 0.10937 0.0586 0.28125 0.17578 0.17578" fill="#211e1e"/>
<path d="m569.2 481.61c0.82031 0.67969 1.6524 1.3438 2.4766 2.0234 0.1211 0.10156 0.29688-0.0742 0.17579-0.17578-0.82032-0.67969-1.6562-1.3438-2.4727-2.0234-0.125-0.10547-0.30078 0.0703-0.17969 0.17578" fill="#211e1e"/>
<path d="m571.82 483.65c0.80078-0.41406 1.5312-0.92578 2.1992-1.5312 0.12109-0.10937-0.0586-0.28515-0.17578-0.17578-0.65234 0.58985-1.3672 1.0859-2.1484 1.4922-0.14453 0.0742-0.0156 0.28906 0.125 0.21484" fill="#211e1e"/>
<path d="m588.55 477.22c-0.14062 2.3281-0.66016 4.5898-1.5391 6.7461-0.0625 0.14844 0.17969 0.21094 0.23828 0.0664 0.89062-2.1758 1.4102-4.4648 1.5508-6.8125 0.0117-0.16016-0.23828-0.16016-0.25 0" fill="#211e1e"/>
<path d="m588.52 480.08c0.64843-0.72656 1.3203-1.4219 2.0273-2.0898 0.11719-0.10938-0.0586-0.28907-0.17578-0.17578-0.70703 0.66796-1.3828 1.3633-2.0273 2.0898-0.10547 0.12109 0.0703 0.29687 0.17578 0.17578" fill="#211e1e"/>
<path d="m587.52 483.28c1.2578-0.51562 2.2031-1.457 3.1289-2.4219 0.10938-0.11719-0.0664-0.29297-0.17968-0.17969-0.88672 0.92969-1.8008 1.8672-3.0156 2.3594-0.14844 0.0586-0.082 0.30078 0.0664 0.24218" fill="#211e1e"/>
<path d="m586.63 478.45c0.29688 0.90625 0.75781 1.7266 1.3789 2.4492 0.10547 0.12109 0.28125-0.0547 0.17969-0.17578-0.59766-0.69141-1.0352-1.4727-1.3164-2.3398-0.0508-0.15234-0.29297-0.0898-0.24219 0.0664" fill="#211e1e"/>
<path d="m585.77 480.96c0.34375 0.9375 0.80859 1.8125 1.3984 2.6172 0.0977 0.125 0.3125 4e-3 0.21875-0.12891-0.58203-0.78906-1.0391-1.6367-1.375-2.5547-0.0547-0.14843-0.29688-0.0859-0.24219 0.0664" fill="#211e1e"/>
<path d="m562.12 474.87c1.1914 2.9727 2.3594 5.9727 2.8555 9.1524 0.0274 0.15625 0.26563 0.0898 0.24219-0.0664-0.49609-3.1797-1.6641-6.1797-2.8555-9.1523-0.0586-0.14844-0.30078-0.0859-0.24219 0.0664" fill="#211e1e"/>
<path d="m561.54 476.65c0.58984 0.46484 1.1953 0.89453 1.8281 1.293 0.082 0.0508 0.1875-0.0156 0.1875-0.10938 0.0195-0.80859 0.22657-1.5586 0.62891-2.2617 0.0781-0.14062-0.13672-0.26953-0.21484-0.1289-0.42188 0.74218-0.64454 1.5391-0.66407 2.3906 0.0625-0.0352 0.12891-0.0703 0.1875-0.10547-0.61328-0.38672-1.207-0.80469-1.7734-1.2539-0.125-0.10157-0.30469 0.0742-0.17969 0.17578" fill="#211e1e"/>
<path d="m562.09 478.93c0.66016 0.42969 1.332 0.83984 2.0117 1.2305 0.0703 0.0391 0.16015 0 0.18359-0.0742 0.2461-0.80469 0.53516-1.5898 0.8711-2.3594 0.0664-0.14454-0.14844-0.27344-0.21485-0.125-0.34375 0.78906-0.64453 1.5938-0.89844 2.418 0.0625-0.0273 0.125-0.0508 0.1875-0.0742-0.68359-0.39063-1.3555-0.80079-2.0117-1.2305-0.13672-0.0899-0.26172 0.1289-0.12891 0.21484" fill="#211e1e"/>
<path d="m561.95 482.25c0.58594 0.21875 1.1836 0.39844 1.7969 0.51172 0.28125 0.0547 0.89844 0.24219 1.1641 0.11328 0.28906-0.14453 0.42578-0.59375 0.57422-0.85547 0.32031-0.56641 0.64063-1.1289 0.96094-1.6953 0.0781-0.14063-0.13672-0.26563-0.21485-0.125-0.24218 0.42187-0.48046 0.84765-0.72265 1.2695-0.16797 0.30078-0.40625 0.96094-0.69922 1.1172-0.34375 0.18359-1.0703-0.0703-1.4531-0.16016-0.45703-0.10937-0.90234-0.25391-1.3398-0.41797-0.15234-0.0586-0.21484 0.1836-0.0664 0.24219" fill="#211e1e"/>
<path d="m572.04 486.2 0.25-0.0234c0.14453-0.0156 0.26953 0.0937 0.26953 0.23829l8e-3 1.5508-0.71485 0.0234-0.0312-1.5391c-4e-3 -0.1289 0.0937-0.23437 0.21875-0.25" fill="#996326"/>
<path d="m579.29 485.43 0.25391-8e-3c0.14453 0 0.25781 0.12109 0.24609 0.26563l-0.21875 2.293-0.77344-0.0234 0.25391-2.3008c8e-3 -0.12891 0.11328-0.22657 0.23828-0.22657" fill="#996326"/>
<path d="m586.58 485.38 0.22657 0.0586c0.13281 0.0312 0.21093 0.16796 0.17187 0.28906l-0.92187 2.9375-0.65235-0.0586 0.91016-3.0898c0.0352-0.10937 0.14844-0.16797 0.26562-0.13672" fill="#996326"/>
<path d="m561.99 490.8c9.168-1.0625 18.297-1.3984 27.48-0.35546v-2c-9.6758-0.51954-19.473-1.832-28.895 1.1445-1.1445 0.36328-0.8086 1.8242 0.26562 1.9648 4.0938 0.53906 8.0664-0.35156 12.16-0.5625 4.4766-0.22656 8.9141 0.0195 13.355 0.62109 0.0898-0.65234 0.17969-1.3086 0.26562-1.9609-8.0742 0.52734-16.156-0.85938-24.102 1.1602-1.082 0.27344-0.87109 1.9961 0.26953 1.9609 3.4844-0.0977 6.9727-0.19531 10.465-0.21875 3.9102-0.0273 8.957-0.56641 12.582 0.99609 0.17187-0.62109 0.33984-1.2422 0.50781-1.8633-7.168 0.5586-14.281-1.0391-21.406 0.28516-1.1289 0.21094-0.83984 1.9648 0.26562 1.9648 6.1875 0 12.367 0.32813 18.555 0.32813-0.0898-0.65625-0.17578-1.3086-0.26562-1.9648-5.6875 0.94141-11.348 0.57032-17.074 0.41797v2c4.9023-0.0351 9.7969 0.25 14.699 0.21485-0.0899-0.65235-0.17969-1.3086-0.26953-1.9648-3.6875 0.65625-7.3828 0.52344-11.105 0.58985v2c2.8398-0.10938 5.6055-0.0586 8.4336 0.22656v-2c-1.3359 0.082-2.5977 0.27734-3.9219 0.5-1.125 0.1875-0.83985 1.9766 0.26562 1.9648 1.6328-0.0195 3.2031 0.21875 4.8008 0.55078 1.2578 0.26172 1.793-1.668 0.53125-1.9297-1.793-0.3711-3.5-0.64453-5.332-0.6211 0.0898 0.65235 0.17578 1.3086 0.26563 1.9609 1.1211-0.21484 2.25-0.35547 3.3906-0.42578 1.3008-0.082 1.2695-1.875 0-2-2.832-0.28516-5.5977-0.33594-8.4336-0.22656-1.2812 0.0469-1.293 2.0195 0 2 3.9297-0.0703 7.7578 0.0312 11.641-0.66016 1.125-0.19922 0.83985-1.9727-0.26562-1.9648-4.9024 0.0351-9.7969-0.25-14.699-0.21485-1.2891 0.0117-1.2852 1.9648 0 2 5.9141 0.15625 11.742 0.48438 17.605-0.48828 1.1328-0.1875 0.83593-1.9648-0.26563-1.9648-6.1875 0-12.367-0.32813-18.555-0.32813 0.0898 0.65625 0.17579 1.3086 0.26563 1.9648 6.9297-1.2891 13.898 0.32812 20.875-0.21485 0.87109-0.0664 1.5039-1.4297 0.50391-1.8633-6.8789-2.9648-16.77-1.2539-24.059-1.0508 0.0859 0.65625 0.17578 1.3125 0.26172 1.9648 7.7539-1.9688 15.688-0.57031 23.57-1.0859 1.0469-0.0703 1.4531-1.8047 0.26563-1.9648-4.0078-0.54687-8.0156-0.85937-12.066-0.76172-4.6719 0.11329-9.3242 1.2422-13.98 0.62891 0.0899 0.65625 0.17969 1.3086 0.26563 1.9648 9.2461-2.9219 18.875-1.5859 28.363-1.0742 1.3047 0.0703 1.2461-1.8555 0-2-9.1836-1.043-18.312-0.70704-27.48 0.35546-1.2617 0.14844-1.2773 2.1484 0 2" fill="#b3dede"/>
<g fill="#1e5c59">
<use x="624.96191" y="479.8522" width="100%" height="100%" xlink:href="#aw"/>
</g>
<g fill="#1e5c59">
<use x="647.09015" y="479.8522" width="100%" height="100%" xlink:href="#as"/>
<use x="658.03894" y="479.8522" width="100%" height="100%" xlink:href="#ar"/>
<use x="669.88513" y="479.8522" width="100%" height="100%" xlink:href="#aq"/>
<use x="676.06464" y="479.8522" width="100%" height="100%" xlink:href="#ap"/>
<use x="686.98773" y="479.8522" width="100%" height="100%" xlink:href="#ao"/>
<use x="692.65442" y="479.8522" width="100%" height="100%" xlink:href="#an"/>
</g>
<g fill="#1e5c59">
<use x="706.21857" y="479.8522" width="100%" height="100%" xlink:href="#am"/>
<use x="718.21857" y="479.8522" width="100%" height="100%" xlink:href="#al"/>
</g>
<g fill="#1e5c59">
<use x="726.88269" y="479.8522" width="100%" height="100%" xlink:href="#av"/>
<use x="738.29297" y="479.8522" width="100%" height="100%" xlink:href="#au"/>
<use x="747.62634" y="479.8522" width="100%" height="100%" xlink:href="#at"/>
</g>
<g fill="#1e5c59">
<use x="637.40332" y="496.98691" width="100%" height="100%" xlink:href="#e"/>
<use x="642.27448" y="496.98691" width="100%" height="100%" xlink:href="#a"/>
<use x="644.18317" y="496.98691" width="100%" height="100%" xlink:href="#d"/>
<use x="649.90936" y="496.98691" width="100%" height="100%" xlink:href="#a"/>
<use x="651.81812" y="496.98691" width="100%" height="100%" xlink:href="#ah"/>
<use x="659.35803" y="496.98691" width="100%" height="100%" xlink:href="#a"/>
<use x="661.26678" y="496.98691" width="100%" height="100%" xlink:href="#ag"/>
<use x="663.97009" y="496.98691" width="100%" height="100%" xlink:href="#a"/>
<use x="665.87885" y="496.98691" width="100%" height="100%" xlink:href="#c"/>
<use x="670.24042" y="496.98691" width="100%" height="100%" xlink:href="#a"/>
<use x="672.14917" y="496.98691" width="100%" height="100%" xlink:href="#af"/>
<use x="677.18439" y="496.98691" width="100%" height="100%" xlink:href="#a"/>
<use x="679.09314" y="496.98691" width="100%" height="100%" xlink:href="#a"/>
<use x="681.00189" y="496.98691" width="100%" height="100%" xlink:href="#a"/>
<use x="682.91058" y="496.98691" width="100%" height="100%" xlink:href="#e"/>
<use x="687.78174" y="496.98691" width="100%" height="100%" xlink:href="#a"/>
<use x="689.69049" y="496.98691" width="100%" height="100%" xlink:href="#ae"/>
<use x="695.90033" y="496.98691" width="100%" height="100%" xlink:href="#a"/>
<use x="697.80908" y="496.98691" width="100%" height="100%" xlink:href="#ad"/>
<use x="704.48535" y="496.98691" width="100%" height="100%" xlink:href="#a"/>
<use x="706.39404" y="496.98691" width="100%" height="100%" xlink:href="#a"/>
<use x="708.3028" y="496.98691" width="100%" height="100%" xlink:href="#a"/>
<use x="710.21155" y="496.98691" width="100%" height="100%" xlink:href="#ak"/>
<use x="715.32452" y="496.98691" width="100%" height="100%" xlink:href="#a"/>
<use x="717.23322" y="496.98691" width="100%" height="100%" xlink:href="#c"/>
<use x="721.59485" y="496.98691" width="100%" height="100%" xlink:href="#a"/>
<use x="723.50354" y="496.98691" width="100%" height="100%" xlink:href="#d"/>
<use x="729.22974" y="496.98691" width="100%" height="100%" xlink:href="#a"/>
<use x="731.13849" y="496.98691" width="100%" height="100%" xlink:href="#aj"/>
<use x="737.04608" y="496.98691" width="100%" height="100%" xlink:href="#a"/>
<use x="738.95477" y="496.98691" width="100%" height="100%" xlink:href="#ai"/>
</g>
</g>
</svg>
